<svg width="22" height="25" viewBox="0 0 22 25" fill="none" xmlns="http://www.w3.org/2000/svg">
<path d="M21.158 18.3637C21.158 18.3796 21.1579 18.393 21.1576 18.4047C18.7265 19.799 16.2979 21.2007 13.8704 22.6017C13.3546 22.8995 12.8388 23.1972 12.323 23.4947V23.4834V23.4624V23.4415V23.4205V23.3995V23.3785V23.3575V23.3365V23.3155V23.2945V23.2735V23.2525V23.2315V23.2105V23.1895V23.1685V23.1475V23.1265V23.1055V23.0845V23.0635V23.0425V23.0215V23.0005V22.9795V22.9585V22.9375V22.9165V22.8955V22.8745V22.8535V22.8325V22.8115V22.7905V22.7695V22.7485V22.7275V22.7065V22.6855V22.6645V22.6435V22.6225V22.6015V22.5805V22.5595V22.5385V22.5175V22.4965V22.4755V22.4545V22.4335V22.4125V22.3915V22.3705V22.3495V22.3285V22.3075V22.2865V22.2655V22.2445V22.2235V22.2025V22.1815V22.1605V22.1395V22.1185V22.0975V22.0765V22.0555V22.0345V22.0135V21.9925V21.9715V21.9505V21.9295V21.9085V21.8875V21.8665V21.8455V21.8245V21.8035V21.7825V21.7615V21.7404V21.7194V21.6984V21.6774V21.6564V21.6354V21.6144V21.5934V21.5724V21.5514V21.5304V21.5094V21.4884V21.4674V21.4464V21.4254V21.4044V21.3834V21.3624V21.3414V21.3204V21.2994V21.2784V21.2574V21.2364V21.2154V21.1944V21.1734V21.1524V21.1314V21.1103V21.0893V21.0683V21.0473V21.0263V21.0053V20.9843V20.9633V20.9423V20.9213V20.9003V20.8793V20.8583V20.8373V20.8163V20.7953V20.7743V20.7533V20.7323V20.7113V20.6903V20.6693V20.6482V20.6272V20.6062V20.5852V20.5642V20.5432V20.5222V20.5012V20.4802V20.4592V20.4382V20.4172V20.3962V20.3752V20.3542V20.3332V20.3122V20.2912V20.2702V20.2491V20.2281V20.2071V20.1861V20.1651V20.1441V20.1231V20.1021V20.0811V20.0601V20.0391V20.0181V19.9971V19.9761V19.9551V19.9341V19.9131V19.892V19.871V19.85V19.829V19.808V19.787V19.766V19.745V19.724V19.703V19.682V19.661V19.64V19.619V19.598V19.577V19.556V19.5349V19.5139V19.4929V19.4719V19.4509V19.4299V19.4089V19.3879V19.3669V19.3459V19.3249V19.3039V19.2829V19.2619V19.2409V19.2199V19.1988V19.1778V19.1568V19.1358V19.1148V19.0938V19.0728V19.0518V19.0308V19.0098V18.9888V18.9678V18.9468V18.9258V18.9048V18.8837V18.8627V18.8417V18.8207V18.7997V18.7787V18.7577V18.7367V18.7157V18.6947V18.6737V18.6527V18.6317V18.6107V18.5897V18.5686V18.5476V18.5266V18.5056V18.4846V18.4636V18.4426V18.4216V18.4006V18.3796V18.3586V18.3376V18.3166V18.2956V18.2746V18.2535V18.2325V18.2115V18.1905V18.1695V18.1485V18.1275V18.1065V18.0855V18.0645V18.0435V18.0225V18.0015V17.9805V17.9595V17.9385V17.9174V17.8964V17.8754V17.8544V17.8334V17.8124V17.7914V17.7704V17.7494V17.7284V17.7074V17.6864V17.6654V17.6444V17.6234V17.6024V17.5813V17.5603V17.5393V17.5183V17.4973V17.4763V17.4553V17.4343V17.4133V17.3923V17.3713V17.3503V17.3293V17.3083V17.2873V17.2663V17.2453V17.2242V17.2032V17.1822V17.1612V17.1402V17.1192V17.0982V17.0772V17.0562V17.0352V17.0142V16.9932V16.9722V16.9512V16.9302V16.9092V16.8882V16.8672V16.8461V16.8251V16.8041V16.7831V16.7621V16.7411V16.7201V16.6991V16.6781V16.6571V16.6361V16.6151V16.5941V16.5731V16.5521V16.5311V16.5101V16.4891V16.4681V16.4471V16.426V16.405V16.384V16.363V16.342V16.321V16.3V16.279V16.258V16.237V16.216V16.195V16.174V16.153V16.132V16.111V16.09V16.069V16.048V16.027V16.006V15.985V15.964V15.943V15.922V15.9009V15.8799V15.8589V15.8379V15.8169V15.7959V15.7749V15.7539V15.7329V15.7119V15.6909V15.6699V15.6489V15.6279V15.6069V15.5859V15.5649V15.5439V15.5229V15.5019V15.4809V15.4599V15.4389V15.4179V15.3969V15.3759V15.3549V15.3339V15.3129V15.2919V15.2709V15.2499V15.2289V15.2079V15.1869V15.1659V15.1449V15.1239V15.1029V15.0819V15.0609V15.0399V15.0189V14.9978V14.9768V14.9558V14.9348V14.9138V14.8928V14.8718V14.8508V14.8298V14.8088V14.7878V14.7668V14.7458V14.7248V14.7038V14.6828V14.6618V14.6408V14.6198V14.5988V14.5778V14.5568V14.5358V14.5148V14.4938V14.4728V14.4518V14.4308V14.4098V14.3888V14.3678V14.3468V14.3259V14.3049V14.2839V14.2629V14.2419V14.2209V14.1999V14.1789V14.1579V14.1369V14.1159V14.0949V14.0739V14.0529V14.0319V14.0109V13.9899V13.9689V13.9479V13.9269V13.9059V13.8849V13.8639V13.8429V13.8219V13.8009V13.7799V13.7589V13.7379V13.7169V13.6959V13.6749V13.6539V13.6329V13.6119V13.5909V13.5699V13.549V13.528V13.507V13.486V13.465V13.444V13.423V13.402V13.381V13.36V13.339V13.318V13.297V13.2919C14.56 12.006 16.7951 10.7158 19.0291 9.42627C19.7389 9.01659 20.4485 8.60698 21.158 8.19758V8.20798V8.22878V8.24958V8.27038V8.29119V8.31199V8.33279V8.35359V8.3744V8.3952V8.416V8.4368V8.45761V8.47841V8.49921V8.52001V8.54082V8.56162V8.58242V8.60322V8.62403V8.64483V8.66563V8.68643V8.70724V8.72804V8.74884V8.76965V8.79045V8.81125V8.83205V8.85286V8.87366V8.89446V8.91526V8.93607V8.95687V8.97767V8.99848V9.01928V9.04008V9.06088V9.08169V9.10249V9.12329V9.14409V9.1649V9.1857V9.2065V9.22731V9.24811V9.26891V9.28971V9.31052V9.33132V9.35212V9.37293V9.39373V9.41453V9.43534V9.45614V9.47694V9.49775V9.51855V9.53935V9.56015V9.58096V9.60176V9.62256V9.64337V9.66417V9.68497V9.70578V9.72658V9.74738V9.76819V9.78899V9.80979V9.8306V9.8514V9.8722V9.89301V9.91381V9.93461V9.95542V9.97622V9.99702V10.0178V10.0386V10.0594V10.0802V10.101V10.1218V10.1426V10.1635V10.1843V10.2051V10.2259V10.2467V10.2675V10.2883V10.3091V10.3299V10.3507V10.3715V10.3923V10.4131V10.4339V10.4547V10.4755V10.4963V10.5171V10.5379V10.5587V10.5795V10.6003V10.6211V10.6419V10.6627V10.6836V10.7044V10.7252V10.746V10.7668V10.7876V10.8084V10.8292V10.85V10.8708V10.8916V10.9124V10.9332V10.954V10.9748V10.9956V11.0164V11.0372V11.058V11.0788V11.0996V11.1204V11.1413V11.1621V11.1829V11.2037V11.2245V11.2453V11.2661V11.2869V11.3077V11.3285V11.3493V11.3701V11.3909V11.4117V11.4325V11.4533V11.4741V11.4949V11.5157V11.5366V11.5574V11.5782V11.599V11.6198V11.6406V11.6614V11.6822V11.703V11.7238V11.7446V11.7654V11.7862V11.807V11.8278V11.8486V11.8694V11.8903V11.9111V11.9319V11.9527V11.9735V11.9943V12.0151V12.0359V12.0567V12.0775V12.0983V12.1191V12.1399V12.1607V12.1815V12.2023V12.2232V12.244V12.2648V12.2856V12.3064V12.3272V12.348V12.3688V12.3896V12.4104V12.4312V12.452V12.4728V12.4936V12.5145V12.5353V12.5561V12.5769V12.5977V12.6185V12.6393V12.6601V12.6809V12.7017V12.7225V12.7433V12.7641V12.7849V12.8058V12.8266V12.8474V12.8682V12.889V12.9098V12.9306V12.9514V12.9722V12.993V13.0138V13.0346V13.0555V13.0763V13.0971V13.1179V13.1387V13.1595V13.1803V13.2011V13.2219V13.2427V13.2635V13.2844V13.3052V13.326V13.3468V13.3676V13.3884V13.4092V13.43V13.4508V13.4716V13.4924V13.5133V13.5341V13.5549V13.5757V13.5965V13.6173V13.6381V13.6589V13.6797V13.7005V13.7214V13.7422V13.763V13.7838V13.8046V13.8254V13.8462V13.867V13.8878V13.9086V13.9295V13.9503V13.9711V13.9919V14.0127V14.0335V14.0543V14.0751V14.0959V14.1168V14.1376V14.1584V14.1792V14.2V14.2208V14.2416V14.2624V14.2832V14.3041V14.3249V14.3457V14.3665V14.3873V14.4081V14.4289V14.4497V14.4705V14.4914V14.5122V14.533V14.5538V14.5746V14.5954V14.6162V14.637V14.6579V14.6787V14.6995V14.7203V14.7411V14.7619V14.7827V14.8036V14.8244V14.8452V14.866V14.8868V14.9076V14.9284V14.9492V14.9701V14.9909V15.0117V15.0325V15.0533V15.0741V15.0949V15.1158V15.1366V15.1574V15.1782V15.199V15.2198V15.2406V15.2615V15.2823V15.3031V15.3239V15.3447V15.3655V15.3863V15.4072V15.428V15.4488V15.4696V15.4904V15.5112V15.532V15.5529V15.5737V15.5945V15.6153V15.6361V15.6569V15.6778V15.6986V15.7194V15.7402V15.761V15.7818V15.8027V15.8235V15.8443V15.8651V15.8859V15.9067V15.9276V15.9484V15.9692V15.99V16.0108V16.0316V16.0525V16.0733V16.0941V16.1149V16.1357V16.1565V16.1774V16.1982V16.219V16.2398V16.2606V16.2814V16.3023V16.3231V16.3439V16.3647V16.3855V16.4064V16.4272V16.448V16.4688V16.4896V16.5104V16.5313V16.5521V16.5729V16.5937V16.6145V16.6354V16.6562V16.677V16.6978V16.7186V16.7395V16.7603V16.7811V16.8019V16.8227V16.8436V16.8644V16.8852V16.906V16.9268V16.9477V16.9685V16.9893V17.0101V17.0309V17.0518V17.0726V17.0934V17.1142V17.135V17.1559V17.1767V17.1975V17.2183V17.2392V17.26V17.2808V17.3016V17.3224V17.3433V17.3641V17.3849V17.4057V17.4266V17.4474V17.4682V17.489V17.5098V17.5307V17.5515V17.5723V17.5931V17.614V17.6348V17.6556V17.6764V17.6973V17.7181V17.7389V17.7597V17.7805V17.8014V17.8222V17.843V17.8638V17.8847V17.9055V17.9263V17.9471V17.968V17.9888V18.0096V18.0304V18.0513V18.0721V18.0929V18.1137V18.1346V18.1554V18.1762V18.197V18.2179V18.2387V18.2595V18.2803V18.3012V18.322V18.3428V18.3637Z" stroke="white"/>
<path d="M3.43169 20.6592V20.4834V20.472V20.4605V20.449V20.4375V20.426V20.4145V20.4031V20.3916V20.3801V20.3686V20.3571V20.3457V20.3342V20.3227V20.3112V20.2997V20.2883V20.2768V20.2653V20.2538V20.2423V20.2309V20.2194V20.2079V20.1964V20.1849V20.1735V20.162V20.1505V20.139V20.1275V20.1161V20.1046V20.0931V20.0824M3.43169 20.6592L3.7964 9.52924M3.43169 20.6592C3.02939 20.428 2.62752 20.196 2.22574 19.9641C1.56208 19.5809 0.898645 19.1979 0.233825 18.819M3.43169 20.6592L0.500252 18.3953M3.43169 20.0824C3.59123 20.1742 3.75063 20.2659 3.90985 20.3572L3.91464 20.3599L3.91463 20.3599C3.9204 20.3633 3.92586 20.3664 3.93169 20.3693V14.6087C3.93169 14.215 3.93195 13.8216 3.9322 13.4283C3.93297 12.2489 3.93374 11.0706 3.92759 9.89C3.92759 9.76702 3.88249 9.58253 3.7964 9.52924M3.43169 20.0824C3.11437 19.8997 2.79647 19.7162 2.4783 19.5325C1.81924 19.152 1.159 18.7708 0.500252 18.3953M3.43169 20.0824L0.500252 18.3953M3.7964 9.52924L3.57307 9.89L3.57192 9.89186L3.53322 9.95437C3.49812 9.93264 3.47353 9.90962 3.45781 9.89245C3.45765 9.89228 3.45749 9.89211 3.45734 9.89194C3.45675 9.89129 3.45616 9.89065 3.45559 9.89C3.44087 9.87359 3.43166 9.85983 3.42665 9.85165C3.41975 9.84036 3.41725 9.8338 3.41733 9.83392C3.41736 9.83397 3.4178 9.83505 3.41853 9.8373C3.42063 9.84379 3.42329 9.85433 3.42527 9.86695C3.42729 9.8798 3.42759 9.88827 3.42758 9.89L3.42759 9.89209C3.42789 9.89226 3.42818 9.89243 3.42847 9.8926C3.46629 9.91493 3.5041 9.93727 3.54189 9.95962L3.58199 9.8918L3.58306 9.89L3.7964 9.52924ZM0.0206448 7.33624L0.0212477 7.33629C0.146849 7.40886 0.272062 7.48115 0.39691 7.55322C0.432719 7.57389 0.468497 7.59454 0.504247 7.61517C0.504249 7.80759 0.504263 8.00002 0.504286 8.19247C0.501543 8.19089 0.4988 8.18931 0.496057 8.18772C0.332807 8.09352 0.168895 7.99894 0.00425859 7.90388C0.00425063 7.78699 0.0042463 7.6701 0.0042463 7.55322C0.0042463 7.50186 0.00805312 7.4505 0.015667 7.34779C0.0157581 7.34656 0.0158497 7.34532 0.0159419 7.34408L0.0165451 7.34303M0.0206448 7.33624V7.33594L0.0204765 7.33623M0.0206448 7.33624V7.55322V7.83594H0.0165451V7.55322V7.34303M0.0206448 7.33624L0.0204765 7.33623M0.0204765 7.33623L0.0165451 7.33594V7.34303M0.0204765 7.33623L0.0165451 7.34303M0.500252 18.3953C0.494521 18.3921 0.488791 18.3888 0.48306 18.3855C0.458533 18.3713 0.449354 18.3641 0.448045 18.363C0.447935 18.363 0.458756 18.3718 0.47137 18.3905C0.47259 18.3923 0.47377 18.3941 0.47491 18.396L0.448192 18.4428L0.443506 18.4511L0.233825 18.819M0.500252 18.3953L0.000146582 18.4418C-0.00395305 18.6386 0.0780394 18.7288 0.233825 18.819M0.500252 18.3953C0.500217 18.4112 0.500181 18.4271 0.500145 18.443L0.500124 18.4522L0.500038 18.4522C0.499774 18.4649 0.501051 18.4633 0.498628 18.4522C0.498341 18.4509 0.498003 18.4495 0.497603 18.4479C0.497194 18.4463 0.496745 18.4446 0.496257 18.4429C0.492387 18.4297 0.486018 18.4144 0.476882 18.3992L0.451594 18.4428L0.446798 18.4511L0.233825 18.819" stroke="white"/>
<path d="M13.7607 2.20846C13.7208 2.18547 13.681 2.1625 13.6411 2.13955C12.6925 1.593 11.7615 1.05668 10.8359 0.513362C10.8342 0.514365 10.8323 0.51542 10.8304 0.516528L10.8248 0.506925C10.8088 0.497868 10.8014 0.495213 10.8013 0.49517C10.8013 0.495162 10.8015 0.495233 10.8019 0.495362C10.8038 0.49596 10.8086 0.497309 10.8158 0.498404C10.8173 0.498622 10.8187 0.498821 10.8203 0.498999L10.5802 0.0835952L10.8217 0.499157C10.8267 0.499695 10.832 0.500003 10.8377 0.5L11.0844 0.079609L10.8377 0.5L13.7607 2.20846ZM13.7607 2.20846C12.8743 2.72074 11.9874 3.23282 11.1005 3.74497C9.05228 4.92759 7.00357 6.11053 4.95888 7.29688L13.7607 2.20846ZM10.8314 0.515935L10.8268 0.508057L4.95881 7.29692C4.94709 7.30372 4.93746 7.30888 4.92966 7.3128C4.92554 7.31045 4.92088 7.30769 4.91566 7.30445L4.91571 7.30436L4.90704 7.29923C4.16442 6.85926 3.41407 6.42768 2.66777 5.99842C2.4454 5.87052 2.22339 5.74283 2.00205 5.61518C2.26426 5.46395 2.52377 5.31449 2.78194 5.1658C3.18419 4.93413 3.58319 4.70434 3.98408 4.47263L3.98441 4.47244C6.26749 3.1567 8.55143 1.84045 10.8314 0.515935Z" stroke="white"/>
<path d="M7.91186 9.02343C8.02186 9.08664 8.13173 9.14972 8.24146 9.21273C9.07582 9.69179 9.90218 10.1663 10.7184 10.6537L10.7212 10.6553L10.7212 10.6553C10.7681 10.6838 10.7985 10.6972 10.8166 10.7035C10.8253 10.7065 10.8306 10.7077 10.8331 10.7081L10.8355 10.7085L10.836 10.7085L10.8364 10.7085L10.8386 10.7083C10.8408 10.7079 10.8458 10.7069 10.8541 10.7043C10.8715 10.6987 10.9015 10.6863 10.9483 10.6591L7.91186 9.02343ZM7.91186 9.02343C8.60766 8.62132 9.30375 8.21931 9.99995 7.81723C12.2268 6.53114 14.4549 5.2444 16.6783 3.95136L16.6784 3.95131C16.7112 3.93224 16.7321 3.92284 16.7437 3.91836C16.7535 3.92235 16.7698 3.93005 16.794 3.94445L16.7948 3.94496C17.5698 4.4051 18.3526 4.85616 19.1478 5.31436C19.3208 5.41406 19.4945 5.51409 19.6687 5.61463C19.5556 5.67995 19.4447 5.74409 19.3339 5.80816L19.3336 5.80834C19.3335 5.80838 19.3334 5.80842 19.3334 5.80846C18.6348 6.21203 17.9358 6.61543 17.2367 7.0189C15.1389 8.22964 13.04 9.44095 10.9484 10.659L7.91186 9.02343Z" stroke="white"/>
<path d="M5.92034 11.3221C5.9167 14.8473 5.91699 18.3724 5.92488 21.8976C5.92488 22.0042 6.03557 22.1518 6.13806 22.2133M5.92034 11.3221L9.84823 13.2433C9.84331 15.4276 9.84282 17.6104 9.84232 19.7936C9.84202 21.1222 9.84172 22.4509 9.84043 23.7801C9.6692 23.6819 9.50362 23.5867 9.34069 23.4927M5.92034 11.3221C5.92204 11.3231 5.92377 11.3241 5.92555 11.3252L5.92554 11.3252L5.93032 11.3279C6.09339 11.4214 6.25665 11.5153 6.42006 11.6094M5.92034 11.3221L6.42065 11.0329C6.42044 11.225 6.42024 11.4172 6.42006 11.6094M6.13806 22.2133C6.7205 22.558 7.30725 22.8962 7.89362 23.2342C8.1162 23.3626 8.33873 23.4908 8.56094 23.6194C8.81823 23.7687 9.07391 23.9163 9.34013 24.0694C9.34034 23.8772 9.34052 23.6849 9.34069 23.4927M6.13806 22.2133L6.32489 21.8976L6.32542 21.8967L6.39272 21.783C6.39677 21.7854 6.40081 21.7878 6.40485 21.7901C6.40298 21.7861 6.40181 21.7843 6.4018 21.7843C6.4018 21.7843 6.40212 21.7848 6.40283 21.7858C6.40419 21.7878 6.40584 21.7899 6.40744 21.7917C6.41319 21.7951 6.41893 21.7985 6.42467 21.8019M6.13806 22.2133L6.32746 21.8976L6.32801 21.8967L6.39531 21.7845C6.39945 21.787 6.40273 21.7892 6.40521 21.7909C6.40595 21.7925 6.40678 21.7944 6.40767 21.7967C6.41136 21.8058 6.4247 21.8411 6.42488 21.8965M9.34069 23.4927C9.34177 22.26 9.34204 21.0273 9.34232 19.7944C9.34281 17.6281 9.3433 15.4616 9.34811 13.2944C8.68664 12.9174 8.02366 12.5347 7.36186 12.1526C7.04756 11.9711 6.73353 11.7898 6.42006 11.6094M9.34069 23.4927C9.16252 23.39 8.98753 23.2888 8.8118 23.1869L8.81138 23.1867C8.58759 23.0572 8.36413 22.9283 8.14104 22.7997C7.56629 22.4684 6.99395 22.1385 6.42467 21.8019M6.42467 21.8019C6.41719 18.4045 6.41675 15.007 6.42006 11.6094M6.42467 21.8019C6.42474 21.8334 6.42481 21.8649 6.42488 21.8965M6.42488 21.8965C6.42488 21.8968 6.42488 21.8972 6.42488 21.8976L6.42488 21.8965Z" stroke="white"/>
</svg>
