<svg width="19" height="19" viewBox="0 0 19 19" fill="none" xmlns="http://www.w3.org/2000/svg">
<path d="M17.7318 9.02975C17.6636 9.4761 17.6298 9.93078 17.5244 10.3688C17.3496 11.0903 17.1233 11.8008 16.9371 12.5195C16.5173 14.1374 16.6432 15.7141 17.326 17.2439C17.3493 17.298 17.3697 17.355 17.4017 17.4377C16.9228 17.607 16.4401 17.6505 15.951 17.5998C15.133 17.5171 14.4105 17.2052 13.8005 16.6466C13.484 16.3545 13.1467 16.3399 12.7621 16.5199C9.14183 18.1983 4.95663 17.2772 2.37356 14.2322C2.06221 13.8658 1.79917 13.4619 1.47873 13.0241C4.97352 13.3329 7.95016 12.3537 10.3153 9.82707C12.6776 7.30329 13.4557 4.27378 12.922 0.856602C12.9908 0.884679 13.0452 0.898572 13.094 0.926796C15.6248 2.30302 17.1549 4.39535 17.633 7.24705C17.6629 7.42689 17.6928 7.60673 17.7228 7.78942L17.7319 9.03546L17.7318 9.02975Z" stroke="white" stroke-width="0.857392" stroke-miterlimit="10"/>
</svg>
