<svg width="23" height="23" viewBox="0 0 23 23" fill="none" xmlns="http://www.w3.org/2000/svg">
<path d="M14.2098 16.9958C14.2105 18.1439 14.2103 19.2923 14.21 20.4403C14.2099 21.0142 14.2098 21.5881 14.2098 22.1618C14.2098 22.2765 14.2221 22.3504 14.2358 22.3956C14.2485 22.4373 14.2603 22.4485 14.2611 22.4494C14.2618 22.4501 14.2719 22.4612 14.311 22.4733C14.3539 22.4866 14.4252 22.4989 14.5373 22.4989C14.9172 22.4989 15.2967 22.4991 15.6761 22.4992C16.4343 22.4995 17.192 22.4997 17.9504 22.4989C18.5907 22.4979 19.1045 22.2758 19.4574 21.9221C19.8102 21.5684 20.0322 21.053 20.0328 20.4099L14.2098 16.9958ZM14.2098 16.9958C14.2097 16.5153 14.0575 16.0747 13.7341 15.7531C13.4112 15.4321 12.9699 15.2814 12.4904 15.2792L12.4899 15.2792C11.8446 15.2768 11.2008 15.278 10.5574 15.2792L10.5559 15.2792C10.5559 15.2792 10.5558 15.2792 10.5557 15.2792C10.0592 15.2799 9.60011 15.4186 9.26582 15.7529C8.93148 16.0873 8.79279 16.5465 8.79207 17.0431V17.0438V17.0539V17.064V17.0741V17.0842V17.0942V17.1043V17.1144V17.1245V17.1346V17.1447V17.1548V17.1649V17.175V17.185V17.1951V17.2052V17.2153V17.2254V17.2355V17.2456V17.2557V17.2658V17.2758V17.2859V17.296V17.3061V17.3162V17.3263V17.3364V17.3465V17.3566V17.3666V17.3767V17.3868V17.3969V17.407V17.4171V17.4272V17.4373V17.4474V17.4574V17.4675V17.4776V17.4877V17.4978V17.5079V17.518V17.5281V17.5382V17.5483V17.5583V17.5684V17.5785V17.5886V17.5987V17.6088V17.6189V17.629V17.6391V17.6491V17.6592V17.6693V17.6794V17.6895V17.6996V17.7097V17.7198V17.7299V17.7399V17.75V17.7601V17.7702V17.7803V17.7904V17.8005V17.8106V17.8207V17.8307V17.8408V17.8509V17.861V17.8711V17.8812V17.8913V17.9014V17.9115V17.9215V17.9316V17.9417V17.9518V17.9619V17.972V17.9821V17.9922V18.0023V18.0124V18.0224V18.0325V18.0426V18.0527V18.0628V18.0729V18.083V18.0931V18.1032V18.1132V18.1233V18.1334V18.1435V18.1536V18.1637V18.1738V18.1839V18.194V18.204V18.2141V18.2242V18.2343V18.2444V18.2545V18.2646V18.2747V18.2848V18.2948V18.3049V18.315V18.3251V18.3352V18.3453V18.3554V18.3655V18.3756V18.3857V18.3957V18.4058V18.4159V18.426V18.4361V18.4462V18.4563V18.4664V18.4765V18.4865V18.4966V18.5067V18.5168V18.5269V18.537V18.5471V18.5572V18.5673V18.5773V18.5874V18.5975V18.6076V18.6177V18.6278V18.6379V18.648V18.6581V18.6681V18.6782V18.6883V18.6984V18.7085V18.7186V18.7287V18.7388V18.7489V18.7589V18.769V18.7791V18.7892V18.7993V18.8094V18.8195V18.8296V18.8397V18.8498V18.8598V18.8699V18.88V18.8901V18.9002V18.9103V18.9204V18.9305V18.9406V18.9506V18.9607V18.9708V18.9809V18.991V19.0011V19.0112V19.0213V19.0314V19.0414V19.0515V19.0616V19.0717V19.0818V19.0919V19.102V19.1121V19.1222V19.1322V19.1423V19.1524V19.1625V19.1726V19.1827V19.1928V19.2029V19.213V19.2231V19.2331V19.2432V19.2533V19.2634V19.2735V19.2836V19.2937V19.3038V19.3139V19.3239V19.334V19.3441V19.3542V19.3643V19.3744V19.3845V19.3946V19.4047V19.4147V19.4248V19.4349V19.445V19.4551V19.4652V19.4753V19.4854V19.4955V19.5055V19.5156V19.5257V19.5358V19.5459V19.556V19.5661V19.5762V19.5863V19.5963V19.6064V19.6165V19.6266V19.6367V19.6468V19.6569V19.667V19.6771V19.6872V19.6972V19.7073V19.7174V19.7275V19.7376V19.7477V19.7578V19.7679V19.778V19.788V19.7981V19.8082V19.8183V19.8284V19.8385V19.8486V19.8587V19.8688V19.8788V19.8889V19.899V19.9091V19.9192V19.9293V19.9394V19.9495V19.9596V19.9696V19.9797V19.9898V19.9999V20.01V20.0201V20.0302V20.0403V20.0504V20.0605V20.0705V20.0806V20.0907V20.1008V20.1109V20.121V20.1311V20.1412V20.1513V20.1613V20.1714V20.1815V20.1916V20.2017V20.2118V20.2219V20.232V20.2421V20.2521V20.2622V20.2723V20.2824V20.2925V20.3026V20.3127V20.3228V20.3329V20.3429V20.353V20.3631V20.3732V20.3833V20.3934V20.4035V20.4136V20.4237V20.4338V20.4438V20.4539V20.464V20.4741V20.4842V20.4943V20.5044V20.5145V20.5246V20.5346V20.5447V20.5548V20.5649V20.575V20.5851V20.5952V20.6053V20.6154V20.6254V20.6355V20.6456V20.6557V20.6658V20.6759V20.686V20.6961V20.7062V20.7162V20.7263V20.7364V20.7465V20.7566V20.7667V20.7768V20.7869V20.797V20.807V20.8171V20.8272V20.8373V20.8474V20.8575V20.8676V20.8777V20.8878V20.8979V20.9079V20.918V20.9281V20.9382V20.9483V20.9584V20.9685V20.9786V20.9887V20.9987V21.0088V21.0189V21.029V21.0391V21.0492V21.0593V21.0694V21.0795V21.0895V21.0996V21.1097V21.1198V21.1299V21.14V21.1501V21.1602V21.1703V21.1803V21.1904V21.2005V21.2106V21.2207V21.2308V21.2409V21.251V21.2611V21.2712V21.2812V21.2913V21.3014V21.3115V21.3216V21.3317V21.3418V21.3519V21.362V21.372V21.3821V21.3922V21.4023V21.4124V21.4225V21.4326V21.4427V21.4528V21.4628V21.4729V21.483V21.4931V21.5032V21.5133V21.5234V21.5335V21.5436V21.5536V21.5637V21.5738V21.5839V21.594V21.6041V21.6142V21.6243V21.6344V21.6444V21.6545V21.6646V21.6747V21.6848V21.6949V21.705V21.7151V21.7252V21.7353V21.7453V21.7554V21.7655V21.7756V21.7857V21.7958V21.8059V21.816V21.8261V21.8361V21.8462V21.8563V21.8664V21.8765V21.8866V21.8967V21.9068V21.9169V21.9269V21.937V21.9471V21.9572V21.9673V21.9774V21.9875V21.9976V22.0077V22.0177V22.0278V22.0379V22.048V22.0581V22.0682V22.0783V22.0884V22.0985V22.1086V22.1186V22.1287V22.1388V22.1489V22.159V22.1691V22.1792V22.1893V22.1994V22.2094C8.79207 22.3941 8.746 22.4428 8.74049 22.4484C8.73539 22.4535 8.68845 22.4989 8.50736 22.4989C8.19022 22.4989 7.87337 22.4992 7.55672 22.4995C6.71331 22.5002 5.87134 22.5009 5.02936 22.4966M14.2098 16.9958L5.02936 22.4966M5.02936 22.4966C5.02943 22.4966 5.02949 22.4966 5.02956 22.4966L5.02679 22.9966L5.02936 22.4966ZM5.02936 22.4966C4.83745 22.4955 4.6582 22.4794 4.49929 22.4413L4.49829 22.4411C3.5779 22.2221 2.97457 21.4597 2.97263 20.4747L2.97263 20.4746C2.9693 18.9398 2.97005 17.4053 2.9708 15.8701C2.97112 15.212 2.97144 14.5538 2.97144 13.8953V13.8948V13.8943V13.8938V13.8933V13.8928V13.8923V13.8918V13.8913V13.8908V13.8902V13.8897V13.8892V13.8887V13.8882V13.8877V13.8872V13.8867V13.8862V13.8857V13.8852V13.8846V13.8841V13.8836V13.8831V13.8826V13.8821V13.8816V13.8811V13.8806V13.8801V13.8796V13.879V13.8785V13.878V13.8775V13.877V13.8765V13.876V13.8755V13.875V13.8745V13.874V13.8734V13.8729V13.8724V13.8719V13.8714V13.8709V13.8704V13.8699V13.8694V13.8689V13.8684V13.8678V13.8673V13.8668V13.8663V13.8658V13.8653V13.8648V13.8643V13.8638V13.8633V13.8628V13.8623V13.8617V13.8612V13.8607V13.8602V13.8597V13.8592V13.8587V13.8582V13.8577V13.8572V13.8567V13.8562V13.8556V13.8551V13.8546V13.8541V13.8536V13.8531V13.8526V13.8521V13.8516V13.8511V13.8506V13.8501V13.8496V13.8491V13.8485V13.848V13.8475V13.847V13.8465V13.846V13.8455V13.845V13.8445V13.844V13.8435V13.843V13.8425V13.842V13.8414V13.8409V13.8404V13.8399V13.8394V13.8389V13.8384V13.8379V13.8374V13.8369V13.8364V13.8359V13.8354V13.8349V13.8344V13.8339V13.8333V13.8328V13.8323V13.8318V13.8313V13.8308V13.8303V13.8298V13.8293V13.8288V13.8283V13.8278V13.8273V13.8268V13.8263V13.8258V13.8253V13.8248V13.8243V13.8237V13.8232V13.8227V13.8222V13.8217V13.8212V13.8207V13.8202V13.8197V13.8192V13.8187V13.8182V13.8177V13.8172V13.8167V13.8162V13.8157V13.8152V13.8147V13.8142V13.8137V13.8132V13.8127V13.8122V13.8117V13.8112V13.8107V13.8101V13.8096V13.8091V13.8086V13.8081V13.8076V13.8071V13.8066V13.8061V13.8056V13.8051V13.8046V13.8041V13.8036V13.8031V13.8026V13.8021V13.8016V13.8011V13.8006V13.8001V13.7996V13.7991V13.7986V13.7981V13.7976V13.7971V13.7966V13.7961V13.7956V13.7951V13.7946V13.7941V13.7936V13.7931V13.7926V13.7921V13.7916V13.7911V13.7906V13.7901V13.7896V13.7891V13.7886V13.7881V13.7876V13.7871V13.7866V13.7861V13.7856V13.7851V13.7846V13.7841V13.7836V13.7831V13.7826V13.7821V13.7816V13.7811V13.7807V13.7802V13.7797V13.7792V13.7787V13.7782V13.7777V13.7772V13.7767V13.7762V13.7757V13.7752V13.7747V13.7742V13.7737V13.7732V13.7727V13.7722V13.7717V13.7712V13.7707V13.7702V13.7697V13.7693V13.7688V13.7683V13.7678V13.7673V13.7668V13.7663V13.7658V13.7653V13.7648V13.7643V13.7638V13.7633V13.7628V13.7623V13.7619V13.7614V13.7609V13.7604V13.7599V13.7594V13.7589V13.7584V13.7579V13.7574V13.7569V13.7564V13.7559V13.7555V13.755V13.7545V13.754V13.7535V13.753V13.7525V13.752V13.7515V13.751V13.7506V13.7501V13.7496V13.7491V13.7486V13.7481V13.7476V13.7471V13.7466V13.7462V13.7457V13.7452V13.7447V13.7442V13.7437V13.7432V13.7427V13.7423V13.7418V13.7413V13.7408V13.7403V13.7398V13.7393V13.7388V13.7384V13.7379V13.7374V13.7369V13.7364V13.7359V13.7355V13.735V13.7345V13.734V13.7335V13.733V13.7325V13.7321V13.7316V13.7311V13.7306V13.7301V13.7296V13.7292V13.7287V13.7282V13.7277V13.7272V13.7267V13.7263V13.7258V13.7253V13.7248V13.7243V13.7239V13.7234V13.7229V13.7224V13.7219V13.7215V13.721V13.7205V13.72V13.7195V13.7191V13.7186V13.7181V13.7176V13.7171V13.7167V13.7162V13.7157V13.7152V13.7147V13.7143V13.7138V13.7133V13.7128V13.7124V13.7119V13.7114V13.7109V13.7105V13.71V13.7095V13.709V13.7085V13.7081V13.7076V13.7071V13.7066V13.7062V13.7057V13.7052V13.7047V13.7043V13.7038V13.7033V13.7029V13.7024V13.7019V13.7014V13.701V13.7005V13.7V13.6995V13.6991V13.6986V13.6981V13.6977V13.6972V13.6967V13.6962V13.6958V13.6953V13.6948V13.6944V13.6939V13.6934V13.693V13.6925V13.692V13.6915V13.6911V13.6906V13.6901V13.6897V13.6892V13.6887V13.6883V13.6878V13.6873V13.6869V13.6864V13.6859V13.6855V13.685V13.6845V13.6841V13.6836V13.6831V13.6827V13.6822V13.6817V13.6813V13.6808V13.6803V13.6799V13.6794V13.679V13.6785V13.678V13.6776V13.6771V13.6766V13.6762V13.6757V13.6753V13.6748V13.6743V13.6739V13.6734V13.673V13.6725V13.672V13.6716V13.6711V13.6707V13.6702V13.6697V13.6693V13.6688V13.6684V13.6679V13.6674V13.667V13.6665V13.6661V13.6656V13.6652V13.6647V13.6642V13.6638V13.6633V13.6629V13.6624V13.662V13.6615V13.661V13.6606V13.6601V13.6597V13.6592V13.6588V13.6583V13.6579V13.6574V13.657V13.6565V13.6561V13.6556V13.6552V13.6547V13.6543V13.6538V13.6534V13.6529V13.6524V13.652V13.6515V13.6511V13.6506V13.6502V13.6498V13.6493V13.6489V13.6484V13.648V13.6475V13.6471V13.6466V13.6462V13.6457V13.6453V13.3032L2.65267 13.1793L2.47144 13.6453L5.02936 22.4966ZM10.6627 0.183333L10.8331 0.353676L11.183 0.00359392C11.1842 0.00334933 11.1854 0.0031057 11.1866 0.00286301V0.5H11.7623C12.2468 0.611601 12.6123 0.932693 13.0659 1.38863L13.066 1.38872C15.9112 4.24709 18.7636 7.1008 21.6233 9.94507C22.0842 10.4036 22.4021 10.7789 22.5 11.2747V11.6597C22.4908 11.6849 22.4816 11.7146 22.4748 11.7476L22.4747 11.7481C22.3818 12.1963 22.1768 12.5301 21.9065 12.753C21.6368 12.9754 21.2734 13.1111 20.8216 13.1143H20.8211H20.8206H20.82H20.8195H20.8189H20.8184H20.8179H20.8173H20.8168H20.8162H20.8157H20.8151H20.8146H20.814H20.8135H20.813H20.8124H20.8119H20.8113H20.8108H20.8102H20.8097H20.8091H20.8086H20.8081H20.8075H20.807H20.8064H20.8059H20.8053H20.8048H20.8042H20.8037H20.8031H20.8026H20.8021H20.8015H20.801H20.8004H20.7999H20.7993H20.7988H20.7982H20.7977H20.7971H20.7966H20.796H20.7955H20.795H20.7944H20.7939H20.7933H20.7928H20.7922H20.7917H20.7911H20.7906H20.79H20.7895H20.7889H20.7884H20.7879H20.7873H20.7868H20.7862H20.7857H20.7851H20.7846H20.784H20.7835H20.7829H20.7824H20.7818H20.7813H20.7807H20.7802H20.7796H20.7791H20.7786H20.778H20.7775H20.7769H20.7764H20.7758H20.7753H20.7747H20.7742H20.7736H20.7731H20.7725H20.772H20.7714H20.7709H20.7703H20.7698H20.7692H20.7687H20.7681H20.7676H20.767H20.7665H20.7659H20.7654H20.7648H20.7643H20.7637H20.7632H20.7626H20.7621H20.7615H20.761H20.7604H20.7599H20.7593H20.7588H20.7582H20.7577H20.7571H20.7566H20.756H20.7555H20.7549H20.7544H20.7538H20.7533H20.7527H20.7522H20.7516H20.7511H20.7505H20.75H20.7494H20.7489H20.7483H20.7478H20.7472H20.7467H20.7461H20.7456H20.745H20.7445H20.7439H20.7434H20.7428H20.7423H20.7417H20.7412H20.7406H20.74H20.7395H20.7389H20.7384H20.7378H20.7373H20.7367H20.7362H20.7356H20.7351H20.7345H20.734H20.7334H20.7329H20.7323H20.7318H20.7312H20.7306H20.7301H20.7295H20.729H20.7284H20.7279H20.7273H20.7268H20.7262H20.7257H20.7251H20.7245H20.724H20.7234H20.7229H20.7223H20.7218H20.7212H20.7207H20.7201H20.7195H20.719H20.7184H20.7179H20.7173H20.7168H20.7162H20.7156H20.7151H20.7145H20.714H20.7134H20.7129H20.7123H20.7117H20.7112H20.7106H20.7101H20.7095H20.709H20.7084H20.7078H20.7073H20.7067H20.7062H20.7056H20.7051H20.7045H20.7039H20.7034H20.7028H20.7023H20.7017H20.7011H20.7006H20.7H20.6995H20.6989H20.6983H20.6978H20.6972H20.6967H20.6961H20.6955H20.695H20.6944H20.6939H20.6933H20.6927H20.6922H20.6916H20.6911H20.6905H20.6899H20.6894H20.6888H20.6882H20.6877H20.6871H20.6866H20.686H20.6854H20.6849H20.6843H20.6837H20.6832H20.6826H20.6821H20.6815H20.6809H20.6804H20.6798H20.6792H20.6787H20.6781H20.6775H20.677H20.6764H20.6758H20.6753H20.6747H20.6742H20.6736H20.673H20.6725H20.6719H20.6713H20.6708H20.6702H20.6696H20.6691H20.6685H20.6679H20.6674H20.6668H20.6662H20.6657H20.6651H20.6645H20.664H20.6634H20.6628H20.6623H20.6617H20.6611H20.6606H20.66H20.6594H20.6588H20.6583H20.6577H20.6571H20.6566H20.656H20.6554H20.6549H20.6543H20.6537H20.6532H20.6526H20.652H20.6514H20.6509H20.6503H20.6497H20.6492H20.6486H20.648H20.6474H20.6469H20.6463H20.6457H20.6452H20.6446H20.644H20.6434H20.6429H20.6423H20.6417H20.6411H20.6406H20.64H20.6394H20.6389H20.6383H20.6377H20.6371H20.6366H20.636H20.6354H20.6348H20.6343H20.6337H20.6331H20.6325H20.632H20.6314H20.6308H20.6302H20.6297H20.6291H20.6285H20.6279H20.6273H20.6268H20.6262H20.6256H20.625H20.6245H20.6239H20.6233H20.6227H20.6222H20.6216H20.621H20.6204H20.6198H20.6193H20.6187H20.6181H20.6175H20.6169H20.6164H20.6158H20.6152H20.6146H20.614H20.6135H20.6129H20.6123H20.6117H20.6111H20.6105H20.61H20.6094H20.6088H20.6082H20.6076H20.6071H20.6065H20.6059H20.6053H20.6047H20.6041H20.6036H20.603H20.6024H20.6018H20.6012H20.6006H20.6001H20.5995H20.5989H20.5983H20.5977H20.5971H20.5965H20.596H20.5954H20.5948H20.5942H20.5936H20.593H20.5924H20.5919H20.5913H20.5907H20.5901H20.5895H20.5889H20.5883H20.5877H20.5871H20.5866H20.586H20.5854H20.5848H20.5842H20.5836H20.583H20.5824H20.5818H20.5813H20.5807H20.5801H20.5795H20.5789H20.5783H20.5777H20.5771H20.5765H20.5759H20.5753H20.5747H20.5742H20.5736H20.573H20.5724H20.5718H20.5712H20.5706H20.57H20.5694H20.5688H20.5682H20.5676H20.567H20.5664H20.5658H20.5652H20.5646H20.564H20.5634H20.5629H20.5623H20.5617H20.5611H20.5605H20.5599H20.5593H20.5587H20.5581H20.5575H20.5569H20.5563H20.5557H20.5551H20.5545H20.5539H20.5533H20.5527H20.5521H20.5515H20.5509H20.5503H20.5497H20.5491H20.5485H20.5479H20.5473H20.5467H20.5461H20.5455H20.5449H20.5443H20.5437H20.5431H20.5424H20.5418H20.5412H20.5406H20.54H20.5394H20.5388H20.5382H20.5376H20.537H20.5364H20.5358H20.5352H20.5346H20.534H20.5334H20.5328H20.0328V13.6143V13.6151V13.6158V13.6165V13.6173V13.618V13.6187V13.6195V13.6202V13.6209V13.6217V13.6224V13.6231V13.6239V13.6246V13.6253V13.626V13.6268V13.6275V13.6282V13.6289V13.6297V13.6304V13.6311V13.6318V13.6325V13.6333V13.634V13.6347V13.6354V13.6361V13.6368V13.6376V13.6383V13.639V13.6397V13.6404V13.6411V13.6418V13.6425V13.6432V13.6439V13.6447V13.6454V13.6461V13.6468V13.6475V13.6482V13.6489V13.6496V13.6503V13.651V13.6517V13.6524V13.6531V13.6538V13.6545V13.6551V13.6558V13.6565V13.6572V13.6579V13.6586V13.6593V13.66V13.6607V13.6614V13.6621V13.6627V13.6634V13.6641V13.6648V13.6655V13.6662V13.6668V13.6675V13.6682V13.6689V13.6696V13.6702V13.6709V13.6716V13.6723V13.6729V13.6736V13.6743V13.675V13.6756V13.6763V13.677V13.6777V13.6783V13.679V13.6797V13.6803V13.681V13.6817V13.6823V13.683V13.6837V13.6843V13.685V13.6856V13.6863V13.687V13.6876V13.6883V13.689V13.6896V13.6903V13.6909V13.6916V13.6922V13.6929V13.6935V13.6942V13.6949V13.6955V13.6962V13.6968V13.6975V13.6981V13.6988V13.6994V13.7001V13.7007V13.7013V13.702V13.7026V13.7033V13.7039V13.7046V13.7052V13.7059V13.7065V13.7071V13.7078V13.7084V13.7091V13.7097V13.7103V13.711V13.7116V13.7122V13.7129V13.7135V13.7141V13.7148V13.7154V13.716V13.7167V13.7173V13.7179V13.7186V13.7192V13.7198V13.7205V13.7211V13.7217V13.7223V13.723V13.7236V13.7242V13.7248V13.7255V13.7261V13.7267V13.7273V13.7279V13.7286V13.7292V13.7298V13.7304V13.731V13.7317V13.7323V13.7329V13.7335V13.7341V13.7347V13.7354V13.736V13.7366V13.7372V13.7378V13.7384V13.739V13.7396V13.7403V13.7409V13.7415V13.7421V13.7427V13.7433V13.7439V13.7445V13.7451V13.7457V13.7463V13.7469V13.7475V13.7481V13.7487V13.7493V13.7499V13.7505V13.7511V13.7517V13.7523V13.7529V13.7535V13.7541V13.7547V13.7553V13.7559V13.7565V13.7571V13.7577V13.7583V13.7589V13.7595V13.7601V13.7607V13.7613V13.7619V13.7625V13.7631V13.7636V13.7642V13.7648V13.7654V13.766V13.7666V13.7672V13.7678V13.7684V13.7689V13.7695V13.7701V13.7707V13.7713V13.7719V13.7725V13.773V13.7736V13.7742V13.7748V13.7754V13.7759V13.7765V13.7771V13.7777V13.7783V13.7788V13.7794V13.78V13.7806V13.7812V13.7817V13.7823V13.7829V13.7835V13.784V13.7846V13.7852V13.7858V13.7863V13.7869V13.7875V13.788V13.7886V13.7892V13.7898V13.7903V13.7909V13.7915V13.792V13.7926V13.7932V13.7937V13.7943V13.7949V13.7955V13.796V13.7966V13.7972V13.7977V13.7983V13.7988V13.7994V13.8V13.8005V13.8011V13.8017V13.8022V13.8028V13.8034V13.8039V13.8045V13.805V13.8056V13.8062V13.8067V13.8073V13.8078V13.8084V13.809V13.8095V13.8101V13.8106V13.8112V13.8117V13.8123V13.8129V13.8134V13.814V13.8145V13.8151V13.8156V13.8162V13.8167V13.8173V13.8178V13.8184V13.8189V13.8195V13.8201V13.8206V13.8212V13.8217V13.8223V13.8228V13.8234V13.8239V13.8245V13.825V13.8256V13.8261V13.8267V13.8272V13.8277V13.8283V13.8288V13.8294V13.8299V13.8305V13.831V13.8316V13.8321V13.8327V13.8332V13.8338V13.8343V13.8348V13.8354V13.8359V13.8365V13.837V13.8376V13.8381V13.8386V13.8392V13.8397V13.8403V13.8408V13.8414V13.8419V13.8424V13.843V13.8435V13.8441V13.8446V13.8451V13.8457V13.8462V13.8468V13.8473V13.8478V13.8484V13.8489V13.8494V13.85V13.8505V13.8511V13.8516V13.8521V13.8527V13.8532V13.8537V13.8543V13.8548V13.8553V13.8559V13.8564V13.857V13.8575V13.858V13.8586V13.8591V13.8596V13.8602V13.8607V13.8612V13.8618V13.8623V13.8628V13.8634V13.8639V13.8644V13.865V13.8655V13.866V13.8666V13.8671V13.8676V13.8681V13.8687V13.8692V13.8697V13.8703V13.8708V13.8713V13.8719V13.8724V13.8729V13.8734V13.874V13.8745V13.875V13.8756V13.8761V13.8766V13.8772V13.8777V13.8782V13.8787V13.8793V13.8798V13.8803V13.8808V13.8814V13.8819V13.8824V13.883V13.8835V13.884V13.8845V13.8851V13.8856V13.8861V13.8866V13.8872V13.8877V13.8882V13.8888V13.8893V13.8898V13.8903V13.8909V13.8914V13.8919V13.8924V13.893V13.8935V13.894V13.8945V13.8951V13.8956V13.8961V13.8966V13.8972V13.8977V13.8982V13.8987V13.8993V13.8998V13.9003V13.9008V13.9014V13.9019V13.9024V13.9029V13.9035V13.904V13.9045V13.905V13.9055V13.9061V13.9066V13.9071V13.9076V13.9082V13.9087V13.9092V13.9097V13.9103V13.9108V13.9113V13.9118V13.9124V13.9129V13.9134V13.9139V13.9144V13.915V13.9155V13.916V13.9165V13.9171V13.9176V13.9181V13.9186V13.9192C20.0328 14.6406 20.0329 15.3619 20.033 16.0831C20.0333 17.5254 20.0336 18.9675 20.0328 20.4098L10.6627 0.183333Z" stroke="white"/>
</svg>
