<svg width="21" height="23" viewBox="0 0 21 23" fill="none" xmlns="http://www.w3.org/2000/svg">
<path d="M10.1468 22.5971C9.80215 22.5591 9.46024 22.5238 9.11833 22.4804C7.83752 22.3176 6.62456 21.9296 5.48757 21.3326C3.67491 20.3801 2.23129 19.0233 1.1323 17.3002C0.972197 17.0479 0.955915 16.8226 1.09159 16.5513C2.08476 14.5649 3.65592 13.2923 5.82134 12.7523C5.9923 12.7089 6.16597 12.6872 6.33963 12.6492C6.68154 12.5759 6.97461 12.6709 7.25411 12.869C8.3721 13.6532 9.62305 14.0059 10.988 13.9435C12.0246 13.9001 13.0232 13.6478 13.8562 13.0399C14.4803 12.584 15.0828 12.603 15.753 12.7903C17.6498 13.3167 19.0798 14.4401 20.0866 16.1117C20.5153 16.8253 20.5289 16.8362 20.0703 17.5254C18.9387 19.2214 17.468 20.5511 15.6228 21.452C14.2768 22.1114 12.8522 22.4858 11.3516 22.57C11.3028 22.57 11.2566 22.589 11.2078 22.5998H10.1468V22.5971Z" stroke="white" stroke-width="0.8" stroke-miterlimit="10"/>
<path d="M11.123 1C11.6684 1.13025 12.2437 1.19538 12.7565 1.40704C14.7049 2.20754 15.8907 3.65387 16.2543 5.72704C16.6559 8.03086 15.5189 10.3754 13.4241 11.4961C11.3835 12.5842 9.34828 12.473 7.44335 11.1569C5.9129 10.0986 5.10968 8.58714 5.07441 6.73648C5.03642 4.6796 5.92918 3.06503 7.64144 1.90905C8.39581 1.39889 9.24245 1.1194 10.1515 1.02985C10.1922 1.02714 10.2329 1.00814 10.2736 1H11.123Z" stroke="white" stroke-width="0.8" stroke-miterlimit="10"/>
</svg>
